<?xml version="1.0" encoding="utf-8"?>
<!-- Generator: Adobe Illustrator 21.0.0, SVG Export Plug-In . SVG Version: 6.00 Build 0)  -->
<svg version="1.1" id="Layer_1" xmlns="http://www.w3.org/2000/svg" xmlns:xlink="http://www.w3.org/1999/xlink" x="0px" y="0px"
	 viewBox="0 0 250 250" style="enable-background:new 0 0 250 250;" xml:space="preserve">
<style type="text/css">
	.st0{fill:#FFFFFF;}
	.st1{fill:#FFAA0B;}
</style>
<path class="st0" d="M0,0v250h250V0H0z M21.8,248H2v-19.9h19.8V248z M21.8,226.1H2v-20.7h19.8V226.1z M21.8,203.4H2v-20.7h19.8
	V203.4z M21.8,180.7H2V160h19.8V180.7z M21.8,158H2v-20.7h19.8V158z M21.8,135.3H2v-20.7h19.8V135.3z M21.8,112.6H2V91.9h19.8V112.6
	z M21.8,89.9H2V69.2h19.8V89.9z M21.8,67.2H2V46.5h19.8V67.2z M21.8,44.5H2V23.8h19.8V44.5z M21.8,21.8H2V2h19.8V21.8z M44.5,248
	H23.8v-19.9h20.7V248z M44.5,226.1H23.8v-20.7h20.7V226.1z M44.5,203.4H23.8v-20.7h20.7V203.4z M44.5,180.7H23.8V160h20.7V180.7z
	 M44.5,158H23.8v-20.7h20.7V158z M44.5,135.3H23.8v-20.7h20.7V135.3z M44.5,112.6H23.8V91.9h20.7V112.6z M44.5,89.9H23.8V69.2h20.7
	V89.9z M44.5,67.2H23.8V46.5h20.7V67.2z M44.5,44.5H23.8V23.8h20.7V44.5z M44.5,21.8H23.8V2h20.7V21.8z M67.3,248H46.5v-19.9h20.7
	V248H67.3z M67.3,226.1H46.5v-20.7h20.7v20.7H67.3z M67.3,203.4H46.5v-20.7h20.7v20.7H67.3z M67.3,180.7H46.5V160h20.7v20.7H67.3z
	 M67.3,158H46.5v-20.7h20.7V158H67.3z M67.3,135.3H46.5v-20.7h20.7v20.7H67.3z M67.3,112.6H46.5V91.9h20.7v20.7H67.3z M67.3,89.9
	H46.5V69.2h20.7v20.7H67.3z M67.3,67.2H46.5V46.5h20.7v20.7H67.3z M67.3,44.5H46.5V23.8h20.7v20.7H67.3z M67.3,21.8H46.5V2h20.7
	v19.8H67.3z M90,248H69.3v-19.9H90V248z M90,226.1H69.3v-20.7H90V226.1z M90,203.4H69.3v-20.7H90V203.4z M90,180.7H69.3V160H90
	V180.7z M90,158H69.3v-20.7H90V158z M90,135.3H69.3v-20.7H90V135.3z M90,112.6H69.3V91.9H90V112.6z M90,89.9H69.3V69.2H90V89.9z
	 M90,67.2H69.3V46.5H90V67.2z M90,44.5H69.3V23.8H90V44.5z M90,21.8H69.3V2H90V21.8z M112.7,248H92v-19.9h20.7V248z M112.7,226.1H92
	v-20.7h20.7V226.1z M112.7,203.4H92v-20.7h20.7V203.4z M112.7,180.7H92V160h20.7V180.7z M112.7,158H92v-20.7h20.7V158z M112.7,135.3
	H92v-20.7h20.7V135.3z M112.7,112.6H92V91.9h20.7V112.6z M112.7,89.9H92V69.2h20.7V89.9z M112.7,67.2H92V46.5h20.7V67.2z
	 M112.7,44.5H92V23.8h20.7V44.5z M112.7,21.8H92V2h20.7V21.8z M135.3,248h-20.7v-19.9h20.7V248z M135.3,226.1h-20.7v-20.7h20.7
	V226.1z M135.3,203.4h-20.7v-20.7h20.7V203.4z M135.3,180.7h-20.7V160h20.7V180.7z M135.3,158h-20.7v-20.7h20.7V158z M135.3,135.3
	h-20.7v-20.7h20.7V135.3z M135.3,112.6h-20.7V91.9h20.7V112.6z M135.3,89.9h-20.7V69.2h20.7V89.9z M135.3,67.2h-20.7V46.5h20.7V67.2
	z M135.3,44.5h-20.7V23.8h20.7V44.5z M135.3,21.8h-20.7V2h20.7V21.8z M158,248h-20.7v-19.9H158V248z M158,226.1h-20.7v-20.7H158
	V226.1z M158,203.4h-20.7v-20.7H158V203.4z M158,180.7h-20.7V160H158V180.7z M158,158h-20.7v-20.7H158V158z M158,135.3h-20.7v-20.7
	H158V135.3z M158,112.6h-20.7V91.9H158V112.6z M158,89.9h-20.7V69.2H158V89.9z M158,67.2h-20.7V46.5H158V67.2z M158,44.5h-20.7V23.8
	H158V44.5z M158,21.8h-20.7V2H158V21.8z M180.8,248H160v-19.9h20.7V248H180.8z M180.8,226.1H160v-20.7h20.7v20.7H180.8z
	 M180.8,203.4H160v-20.7h20.7v20.7H180.8z M180.8,180.7H160V160h20.7v20.7H180.8z M180.8,158H160v-20.7h20.7V158H180.8z
	 M180.8,135.3H160v-20.7h20.7v20.7H180.8z M180.8,112.6H160V91.9h20.7v20.7H180.8z M180.8,89.9H160V69.2h20.7v20.7H180.8z
	 M180.8,67.2H160V46.5h20.7v20.7H180.8z M180.8,44.5H160V23.8h20.7v20.7H180.8z M180.8,21.8H160V2h20.7v19.8H180.8z M203.5,248
	h-20.7v-19.9h20.7V248z M203.5,226.1h-20.7v-20.7h20.7V226.1z M203.5,203.4h-20.7v-20.7h20.7V203.4z M203.5,180.7h-20.7V160h20.7
	V180.7z M203.5,158h-20.7v-20.7h20.7V158z M203.5,135.3h-20.7v-20.7h20.7V135.3z M203.5,112.6h-20.7V91.9h20.7V112.6z M203.5,89.9
	h-20.7V69.2h20.7V89.9z M203.5,67.2h-20.7V46.5h20.7V67.2z M203.5,44.5h-20.7V23.8h20.7V44.5z M203.5,21.8h-20.7V2h20.7V21.8z
	 M226.2,248h-20.7v-19.9h20.7V248z M226.2,226.1h-20.7v-20.7h20.7V226.1z M226.2,203.4h-20.7v-20.7h20.7V203.4z M226.2,180.7h-20.7
	V160h20.7V180.7z M226.2,158h-20.7v-20.7h20.7V158z M226.2,135.3h-20.7v-20.7h20.7V135.3z M226.2,112.6h-20.7V91.9h20.7V112.6z
	 M226.2,89.9h-20.7V69.2h20.7V89.9z M226.2,67.2h-20.7V46.5h20.7V67.2z M226.2,44.5h-20.7V23.8h20.7V44.5z M226.2,21.8h-20.7V2h20.7
	V21.8z M248,248h-19.8v-19.9H248V248z M248,226.1h-19.8v-20.7H248V226.1z M248,203.4h-19.8v-20.7H248V203.4z M248,180.7h-19.8V160
	H248V180.7z M248,158h-19.8v-20.7H248V158z M248,135.3h-19.8v-20.7H248V135.3z M248,112.6h-19.8V91.9H248V112.6z M248,89.9h-19.8
	V69.2H248V89.9z M248,67.2h-19.8V46.5H248V67.2z M248,44.5h-19.8V23.8H248V44.5z M248,21.8h-19.8V2H248V21.8z"/>
<rect x="137.3" y="160" class="st1" width="20.7" height="20.7"/>
<rect x="92" y="160" class="st1" width="20.7" height="20.7"/>
<rect x="137.3" y="46.5" class="st1" width="20.7" height="20.7"/>
<rect x="92" y="46.5" class="st1" width="20.7" height="20.7"/>
<rect x="114.7" y="2" class="st1" width="20.7" height="19.8"/>
<rect x="114.7" y="23.8" class="st1" width="20.7" height="20.7"/>
<rect x="114.7" y="69.2" class="st1" width="20.7" height="20.7"/>
<rect x="114.7" y="91.9" class="st1" width="20.7" height="20.7"/>
<rect x="114.7" y="114.6" class="st1" width="20.7" height="20.7"/>
<rect x="114.7" y="137.3" class="st1" width="20.7" height="20.7"/>
<rect x="114.7" y="182.7" class="st1" width="20.7" height="20.7"/>
<rect x="114.7" y="205.4" class="st1" width="20.7" height="20.7"/>
</svg>
