<?xml version="1.0" encoding="utf-8"?>
<!-- Generator: Adobe Illustrator 21.0.0, SVG Export Plug-In . SVG Version: 6.00 Build 0)  -->
<svg version="1.1" id="Layer_1" xmlns="http://www.w3.org/2000/svg" xmlns:xlink="http://www.w3.org/1999/xlink" x="0px" y="0px"
	 viewBox="0 0 250 250" style="enable-background:new 0 0 250 250;" xml:space="preserve">
<style type="text/css">
	.st0{fill:#FFFFFF;}
	.st1{fill:#FFAA0B;}
</style>
<path class="st0" d="M0,0v250h250V0H0z M18.2,248H2v-16.2h16.2V248z M18.2,229.8H2v-17.2h16.2V229.8z M18.2,210.5H2v-17.2h16.2
	V210.5z M18.2,191.3H2v-17.2h16.2V191.3z M18.2,172.1H2v-17.2h16.2V172.1z M18.2,152.8H2v-17.2h16.2V152.8z M18.2,133.6H2v-17.2
	h16.2V133.6z M18.2,114.4H2V97.1h16.2V114.4z M18.2,95.1H2V77.9h16.2V95.1z M18.2,75.9H2V58.7h16.2V75.9z M18.2,56.7H2V39.5h16.2
	V56.7z M18.2,37.5H2V20.2h16.2V37.5z M18.2,18.2H2V2h16.2V18.2z M37.4,248H20.2v-16.2h17.2V248z M37.4,229.8H20.2v-17.2h17.2V229.8z
	 M37.4,210.5H20.2v-17.2h17.2V210.5z M37.4,191.3H20.2v-17.2h17.2V191.3z M37.4,172.1H20.2v-17.2h17.2V172.1z M37.4,152.8H20.2
	v-17.2h17.2V152.8z M37.4,133.6H20.2v-17.2h17.2V133.6z M37.4,114.4H20.2V97.1h17.2V114.4z M37.4,95.1H20.2V77.9h17.2V95.1z
	 M37.4,75.9H20.2V58.7h17.2V75.9z M37.4,56.7H20.2V39.5h17.2V56.7z M37.4,37.5H20.2V20.2h17.2V37.5z M37.4,18.2H20.2V2h17.2V18.2z
	 M56.7,248H39.5v-16.2h17.2V248z M56.7,229.8H39.5v-17.2h17.2V229.8z M56.7,210.5H39.5v-17.2h17.2V210.5z M56.7,191.3H39.5v-17.2
	h17.2V191.3z M56.7,172.1H39.5v-17.2h17.2V172.1z M56.7,152.8H39.5v-17.2h17.2V152.8z M56.7,133.6H39.5v-17.2h17.2V133.6z
	 M56.7,114.4H39.5V97.1h17.2V114.4z M56.7,95.1H39.5V77.9h17.2V95.1z M56.7,75.9H39.5V58.7h17.2V75.9z M56.7,56.7H39.5V39.5h17.2
	V56.7z M56.7,37.5H39.5V20.2h17.2V37.5z M56.7,18.2H39.5V2h17.2V18.2z M75.9,248H58.7v-16.2h17.2V248z M75.9,229.8H58.7v-17.2h17.2
	V229.8z M75.9,210.5H58.7v-17.2h17.2V210.5z M75.9,191.3H58.7v-17.2h17.2V191.3z M75.9,172.1H58.7v-17.2h17.2V172.1z M75.9,152.8
	H58.7v-17.2h17.2V152.8z M75.9,133.6H58.7v-17.2h17.2V133.6z M75.9,114.4H58.7V97.1h17.2V114.4z M75.9,95.1H58.7V77.9h17.2V95.1z
	 M75.9,75.9H58.7V58.7h17.2V75.9z M75.9,56.7H58.7V39.5h17.2V56.7z M75.9,37.5H58.7V20.2h17.2V37.5z M75.9,18.2H58.7V2h17.2V18.2z
	 M95.1,248H77.9v-16.2h17.2C95.1,231.8,95.1,248,95.1,248z M95.1,229.8H77.9v-17.2h17.2C95.1,212.6,95.1,229.8,95.1,229.8z
	 M95.1,210.5H77.9v-17.2h17.2C95.1,193.3,95.1,210.5,95.1,210.5z M95.1,191.3H77.9v-17.2h17.2C95.1,174.1,95.1,191.3,95.1,191.3z
	 M95.1,172.1H77.9v-17.2h17.2C95.1,154.9,95.1,172.1,95.1,172.1z M95.1,152.8H77.9v-17.2h17.2C95.1,135.6,95.1,152.8,95.1,152.8z
	 M95.1,133.6H77.9v-17.2h17.2C95.1,116.4,95.1,133.6,95.1,133.6z M95.1,114.4H77.9V97.1h17.2C95.1,97.1,95.1,114.4,95.1,114.4z
	 M95.1,95.1H77.9V77.9h17.2C95.1,77.9,95.1,95.1,95.1,95.1z M95.1,75.9H77.9V58.7h17.2C95.1,58.7,95.1,75.9,95.1,75.9z M95.1,56.7
	H77.9V39.5h17.2C95.1,39.5,95.1,56.7,95.1,56.7z M95.1,37.5H77.9V20.2h17.2C95.1,20.2,95.1,37.5,95.1,37.5z M95.1,18.2H77.9V2h17.2
	C95.1,2,95.1,18.2,95.1,18.2z M114.4,248H97.2v-16.2h17.2C114.4,231.8,114.4,248,114.4,248z M114.4,229.8H97.2v-17.2h17.2
	C114.4,212.6,114.4,229.8,114.4,229.8z M114.4,210.5H97.2v-17.2h17.2C114.4,193.3,114.4,210.5,114.4,210.5z M114.4,191.3H97.2v-17.2
	h17.2C114.4,174.1,114.4,191.3,114.4,191.3z M114.4,172.1H97.2v-17.2h17.2C114.4,154.9,114.4,172.1,114.4,172.1z M114.4,152.8H97.2
	v-17.2h17.2C114.4,135.6,114.4,152.8,114.4,152.8z M114.4,133.6H97.2v-17.2h17.2C114.4,116.4,114.4,133.6,114.4,133.6z M114.4,114.4
	H97.2V97.1h17.2C114.4,97.1,114.4,114.4,114.4,114.4z M114.4,95.1H97.2V77.9h17.2C114.4,77.9,114.4,95.1,114.4,95.1z M114.4,75.9
	H97.2V58.7h17.2C114.4,58.7,114.4,75.9,114.4,75.9z M114.4,56.7H97.2V39.5h17.2C114.4,39.5,114.4,56.7,114.4,56.7z M114.4,37.5H97.2
	V20.2h17.2C114.4,20.2,114.4,37.5,114.4,37.5z M114.4,18.2H97.2V2h17.2C114.4,2,114.4,18.2,114.4,18.2z M133.6,248h-17.2v-16.2h17.2
	V248z M133.6,229.8h-17.2v-17.2h17.2V229.8z M133.6,210.5h-17.2v-17.2h17.2V210.5z M133.6,191.3h-17.2v-17.2h17.2V191.3z
	 M133.6,172.1h-17.2v-17.2h17.2V172.1z M133.6,152.8h-17.2v-17.2h17.2V152.8z M133.6,133.6h-17.2v-17.2h17.2V133.6z M133.6,114.4
	h-17.2V97.1h17.2V114.4z M133.6,95.1h-17.2V77.9h17.2V95.1z M133.6,75.9h-17.2V58.7h17.2V75.9z M133.6,56.7h-17.2V39.5h17.2V56.7z
	 M133.6,37.5h-17.2V20.2h17.2V37.5z M133.6,18.2h-17.2V2h17.2V18.2z M152.8,248h-17.2v-16.2h17.2V248z M152.8,229.8h-17.2v-17.2
	h17.2V229.8z M152.8,210.5h-17.2v-17.2h17.2V210.5z M152.8,191.3h-17.2v-17.2h17.2V191.3z M152.8,172.1h-17.2v-17.2h17.2V172.1z
	 M152.8,152.8h-17.2v-17.2h17.2V152.8z M152.8,133.6h-17.2v-17.2h17.2V133.6z M152.8,114.4h-17.2V97.1h17.2V114.4z M152.8,95.1
	h-17.2V77.9h17.2V95.1z M152.8,75.9h-17.2V58.7h17.2V75.9z M152.8,56.7h-17.2V39.5h17.2V56.7z M152.8,37.5h-17.2V20.2h17.2V37.5z
	 M152.8,18.2h-17.2V2h17.2V18.2z M172.1,248h-17.2v-16.2h17.2V248z M172.1,229.8h-17.2v-17.2h17.2V229.8z M172.1,210.5h-17.2v-17.2
	h17.2V210.5z M172.1,191.3h-17.2v-17.2h17.2V191.3z M172.1,172.1h-17.2v-17.2h17.2V172.1z M172.1,152.8h-17.2v-17.2h17.2V152.8z
	 M172.1,133.6h-17.2v-17.2h17.2V133.6z M172.1,114.4h-17.2V97.1h17.2V114.4z M172.1,95.1h-17.2V77.9h17.2V95.1z M172.1,75.9h-17.2
	V58.7h17.2V75.9z M172.1,56.7h-17.2V39.5h17.2V56.7z M172.1,37.5h-17.2V20.2h17.2V37.5z M172.1,18.2h-17.2V2h17.2V18.2z M191.3,248
	h-17.2v-16.2h17.2V248z M191.3,229.8h-17.2v-17.2h17.2V229.8z M191.3,210.5h-17.2v-17.2h17.2V210.5z M191.3,191.3h-17.2v-17.2h17.2
	V191.3z M191.3,172.1h-17.2v-17.2h17.2V172.1z M191.3,152.8h-17.2v-17.2h17.2V152.8z M191.3,133.6h-17.2v-17.2h17.2V133.6z
	 M191.3,114.4h-17.2V97.1h17.2V114.4z M191.3,95.1h-17.2V77.9h17.2V95.1z M191.3,75.9h-17.2V58.7h17.2V75.9z M191.3,56.7h-17.2V39.5
	h17.2V56.7z M191.3,37.5h-17.2V20.2h17.2V37.5z M191.3,18.2h-17.2V2h17.2V18.2z M210.5,248h-17.2v-16.2h17.2V248z M210.5,229.8
	h-17.2v-17.2h17.2V229.8z M210.5,210.5h-17.2v-17.2h17.2V210.5z M210.5,191.3h-17.2v-17.2h17.2V191.3z M210.5,172.1h-17.2v-17.2
	h17.2V172.1z M210.5,152.8h-17.2v-17.2h17.2V152.8z M210.5,133.6h-17.2v-17.2h17.2V133.6z M210.5,114.4h-17.2V97.1h17.2V114.4z
	 M210.5,95.1h-17.2V77.9h17.2V95.1z M210.5,75.9h-17.2V58.7h17.2V75.9z M210.5,56.7h-17.2V39.5h17.2V56.7z M210.5,37.5h-17.2V20.2
	h17.2V37.5z M210.5,18.2h-17.2V2h17.2V18.2z M229.8,248h-17.2v-16.2h17.2V248z M229.8,229.8h-17.2v-17.2h17.2V229.8z M229.8,210.5
	h-17.2v-17.2h17.2V210.5z M229.8,191.3h-17.2v-17.2h17.2V191.3z M229.8,172.1h-17.2v-17.2h17.2V172.1z M229.8,152.8h-17.2v-17.2
	h17.2V152.8z M229.8,133.6h-17.2v-17.2h17.2V133.6z M229.8,114.4h-17.2V97.1h17.2V114.4z M229.8,95.1h-17.2V77.9h17.2V95.1z
	 M229.8,75.9h-17.2V58.7h17.2V75.9z M229.8,56.7h-17.2V39.5h17.2V56.7z M229.8,37.5h-17.2V20.2h17.2V37.5z M229.8,18.2h-17.2V2h17.2
	V18.2z M248,248h-16.2v-16.2H248V248z M248,229.8h-16.2v-17.2H248V229.8z M248,210.5h-16.2v-17.2H248V210.5z M248,191.3h-16.2v-17.2
	H248V191.3z M248,172.1h-16.2v-17.2H248V172.1z M248,152.8h-16.2v-17.2H248V152.8z M248,133.6h-16.2v-17.2H248V133.6z M248,114.4
	h-16.2V97.1H248V114.4z M248,95.1h-16.2V77.9H248V95.1z M248,75.9h-16.2V58.7H248V75.9z M248,56.7h-16.2V39.5H248V56.7z M248,37.5
	h-16.2V20.2H248V37.5z M248,18.2h-16.2V2H248V18.2z"/>
<rect x="77.9" y="39.5" class="st1" width="17.2" height="17.2"/>
<rect x="97.2" y="20.2" class="st1" width="17.2" height="17.3"/>
<rect x="116.4" y="20.2" class="st1" width="17.2" height="17.3"/>
<rect x="135.6" y="20.2" class="st1" width="17.2" height="17.3"/>
<rect x="154.9" y="39.5" class="st1" width="17.2" height="17.2"/>
<rect x="154.9" y="58.7" class="st1" width="17.2" height="17.2"/>
<rect x="154.9" y="77.9" class="st1" width="17.2" height="17.2"/>
<rect x="135.6" y="97.1" class="st1" width="17.2" height="17.3"/>
<rect x="116.4" y="116.4" class="st1" width="17.2" height="17.2"/>
<rect x="116.4" y="135.6" class="st1" width="17.2" height="17.2"/>
<rect x="116.4" y="154.9" class="st1" width="17.2" height="17.2"/>
<rect x="116.4" y="193.3" class="st1" width="17.2" height="17.2"/>
</svg>
